<svg width="1512" height="569" viewBox="0 0 1512 569" fill="none" xmlns="http://www.w3.org/2000/svg">
<rect width="1512" height="569" fill="#EFEFEF"/>
<path d="M75.5 95C61.4854 101.286 61.4854 101.286 55.062 115C49.8066 101.286 49.8066 101.286 35.5 95C49.2226 89.2857 49.2226 89.2857 55.062 75C59.1496 89.2857 59.1496 89.2857 75.5 95Z" fill="url(#paint0_linear_153_6)"/>
<path d="M466 369C451.985 375.286 451.985 375.286 445.562 389C440.307 375.286 440.307 375.286 426 369C439.723 363.286 439.723 363.286 445.562 349C449.65 363.286 449.65 363.286 466 369Z" fill="url(#paint1_linear_153_6)"/>
<path d="M564 265C549.985 271.286 549.985 271.286 543.562 285C538.307 271.286 538.307 271.286 524 265C537.723 259.286 537.723 259.286 543.562 245C547.65 259.286 547.65 259.286 564 265Z" fill="url(#paint2_linear_153_6)"/>
<defs>
<linearGradient id="paint0_linear_153_6" x1="55.5" y1="75" x2="55.5" y2="115" gradientUnits="userSpaceOnUse">
<stop stop-color="#0038FF"/>
<stop offset="1" stop-color="#84DDC7"/>
</linearGradient>
<linearGradient id="paint1_linear_153_6" x1="446" y1="349" x2="446" y2="389" gradientUnits="userSpaceOnUse">
<stop stop-color="#FF0FE7"/>
<stop offset="1" stop-color="#0F27FF"/>
</linearGradient>
<linearGradient id="paint2_linear_153_6" x1="544" y1="245" x2="544" y2="285" gradientUnits="userSpaceOnUse">
<stop stop-color="#49FFA8"/>
<stop offset="1" stop-color="#393C8D"/>
</linearGradient>
</defs>
</svg>
