<svg width="433" height="92" viewBox="0 0 433 92" fill="none" xmlns="http://www.w3.org/2000/svg">
<g filter="url(#filter0_d_204_8)">
<rect x="8" y="7" width="411" height="70" rx="35" fill="white"/>
</g>
<rect x="23" y="23" width="77" height="38" rx="19" fill="#C59CEF"/>
<path d="M54.7102 37.3636V49H52.8352L47.3523 41.0739H47.2557V49H45.1477V37.3636H47.0341L52.5114 45.2955H52.6136V37.3636H54.7102ZM57.0071 49V37.3636H64.5753V39.1307H59.1151V42.2898H64.1832V44.0568H59.1151V47.233H64.6207V49H57.0071ZM69.1747 49L65.8906 37.3636H68.1577L70.2543 45.9148H70.3622L72.6009 37.3636H74.6634L76.9077 45.9205H77.0099L79.1065 37.3636H81.3736L78.0895 49H76.0099L73.6804 40.8352H73.5895L71.2543 49H69.1747Z" fill="black"/>
<path d="M122.108 41.2898H119.983C119.922 40.9413 119.811 40.6326 119.648 40.3636C119.485 40.0909 119.282 39.8598 119.04 39.6705C118.797 39.4811 118.521 39.339 118.21 39.2443C117.903 39.1458 117.572 39.0966 117.216 39.0966C116.583 39.0966 116.023 39.2557 115.534 39.5739C115.045 39.8883 114.663 40.3504 114.386 40.9602C114.11 41.5663 113.972 42.3068 113.972 43.1818C113.972 44.072 114.11 44.822 114.386 45.4318C114.667 46.0379 115.049 46.4962 115.534 46.8068C116.023 47.1136 116.581 47.267 117.21 47.267C117.559 47.267 117.884 47.2216 118.188 47.1307C118.494 47.036 118.769 46.8977 119.011 46.7159C119.258 46.5341 119.464 46.3106 119.631 46.0455C119.801 45.7803 119.919 45.4773 119.983 45.1364L122.108 45.1477C122.028 45.7008 121.856 46.2197 121.591 46.7045C121.33 47.1894 120.987 47.6174 120.562 47.9886C120.138 48.3561 119.642 48.6439 119.074 48.8523C118.506 49.0568 117.875 49.1591 117.182 49.1591C116.159 49.1591 115.246 48.9223 114.443 48.4489C113.64 47.9754 113.008 47.2917 112.545 46.3977C112.083 45.5038 111.852 44.4318 111.852 43.1818C111.852 41.928 112.085 40.8561 112.551 39.9659C113.017 39.072 113.652 38.3883 114.455 37.9148C115.258 37.4413 116.167 37.2045 117.182 37.2045C117.83 37.2045 118.432 37.2955 118.989 37.4773C119.545 37.6591 120.042 37.9261 120.477 38.2784C120.913 38.6269 121.271 39.0549 121.551 39.5625C121.835 40.0663 122.021 40.642 122.108 41.2898ZM126.004 43.8864V49H123.947V37.3636H125.959V41.7557H126.061C126.266 41.2633 126.582 40.875 127.01 40.5909C127.442 40.303 127.991 40.1591 128.658 40.1591C129.264 40.1591 129.792 40.286 130.243 40.5398C130.694 40.7936 131.042 41.1648 131.288 41.6534C131.538 42.142 131.663 42.7386 131.663 43.4432V49H129.607V43.7614C129.607 43.1742 129.455 42.7178 129.152 42.392C128.853 42.0625 128.432 41.8977 127.891 41.8977C127.527 41.8977 127.201 41.9773 126.913 42.1364C126.629 42.2917 126.406 42.517 126.243 42.8125C126.084 43.108 126.004 43.4659 126.004 43.8864ZM137.624 49.1705C136.749 49.1705 135.993 48.9886 135.357 48.625C134.724 48.2576 134.237 47.7386 133.896 47.0682C133.555 46.3939 133.385 45.6004 133.385 44.6875C133.385 43.7898 133.555 43.0019 133.896 42.3239C134.241 41.642 134.722 41.1117 135.339 40.733C135.957 40.3504 136.682 40.1591 137.516 40.1591C138.054 40.1591 138.561 40.2462 139.038 40.4205C139.519 40.5909 139.944 40.8561 140.311 41.2159C140.682 41.5758 140.974 42.0341 141.186 42.5909C141.398 43.1439 141.504 43.803 141.504 44.5682V45.1989H134.351V43.8125H139.533C139.529 43.4186 139.444 43.0682 139.277 42.7614C139.11 42.4508 138.877 42.2064 138.578 42.0284C138.283 41.8504 137.938 41.7614 137.544 41.7614C137.124 41.7614 136.754 41.8636 136.436 42.0682C136.118 42.2689 135.87 42.5341 135.692 42.8636C135.518 43.1894 135.429 43.5473 135.425 43.9375V45.1477C135.425 45.6553 135.518 46.0909 135.703 46.4545C135.889 46.8144 136.148 47.0909 136.482 47.2841C136.815 47.4735 137.205 47.5682 137.652 47.5682C137.951 47.5682 138.222 47.5265 138.464 47.4432C138.707 47.3561 138.917 47.2292 139.095 47.0625C139.273 46.8958 139.408 46.6894 139.499 46.4432L141.419 46.6591C141.298 47.1667 141.067 47.6098 140.726 47.9886C140.389 48.3636 139.957 48.6553 139.43 48.8636C138.904 49.0682 138.302 49.1705 137.624 49.1705ZM147.051 49.1705C146.18 49.1705 145.432 48.9792 144.807 48.5966C144.186 48.214 143.706 47.6856 143.369 47.0114C143.036 46.3333 142.869 45.553 142.869 44.6705C142.869 43.7841 143.04 43.0019 143.381 42.3239C143.722 41.642 144.203 41.1117 144.824 40.733C145.449 40.3504 146.188 40.1591 147.04 40.1591C147.748 40.1591 148.375 40.2898 148.92 40.5511C149.47 40.8087 149.907 41.1742 150.233 41.6477C150.559 42.1174 150.744 42.6667 150.79 43.2955H148.824C148.744 42.875 148.555 42.5246 148.256 42.2443C147.96 41.9602 147.564 41.8182 147.068 41.8182C146.648 41.8182 146.278 41.9318 145.96 42.1591C145.642 42.3826 145.394 42.7045 145.216 43.125C145.042 43.5455 144.955 44.0492 144.955 44.6364C144.955 45.2311 145.042 45.7424 145.216 46.1705C145.39 46.5947 145.634 46.9223 145.949 47.1534C146.267 47.3807 146.64 47.4943 147.068 47.4943C147.371 47.4943 147.642 47.4375 147.881 47.3239C148.123 47.2064 148.326 47.0379 148.489 46.8182C148.652 46.5985 148.763 46.3314 148.824 46.017H150.79C150.741 46.6345 150.559 47.1818 150.244 47.6591C149.93 48.1326 149.502 48.5038 148.96 48.7727C148.419 49.0379 147.782 49.1705 147.051 49.1705ZM154.354 46.2614L154.348 43.7784H154.678L157.814 40.2727H160.217L156.359 44.5682H155.933L154.354 46.2614ZM152.479 49V37.3636H154.536V49H152.479ZM157.956 49L155.115 45.0284L156.501 43.5795L160.416 49H157.956ZM169.364 49.1705C168.511 49.1705 167.773 48.983 167.148 48.608C166.523 48.233 166.038 47.7083 165.693 47.0341C165.352 46.3598 165.182 45.572 165.182 44.6705C165.182 43.7689 165.352 42.9792 165.693 42.3011C166.038 41.6231 166.523 41.0966 167.148 40.7216C167.773 40.3466 168.511 40.1591 169.364 40.1591C170.216 40.1591 170.955 40.3466 171.58 40.7216C172.205 41.0966 172.688 41.6231 173.028 42.3011C173.373 42.9792 173.545 43.7689 173.545 44.6705C173.545 45.572 173.373 46.3598 173.028 47.0341C172.688 47.7083 172.205 48.233 171.58 48.608C170.955 48.983 170.216 49.1705 169.364 49.1705ZM169.375 47.5227C169.837 47.5227 170.223 47.3958 170.534 47.142C170.845 46.8845 171.076 46.5398 171.227 46.108C171.383 45.6761 171.46 45.1951 171.46 44.6648C171.46 44.1307 171.383 43.6477 171.227 43.2159C171.076 42.7803 170.845 42.4337 170.534 42.1761C170.223 41.9186 169.837 41.7898 169.375 41.7898C168.902 41.7898 168.508 41.9186 168.193 42.1761C167.883 42.4337 167.65 42.7803 167.494 43.2159C167.343 43.6477 167.267 44.1307 167.267 44.6648C167.267 45.1951 167.343 45.6761 167.494 46.108C167.65 46.5398 167.883 46.8845 168.193 47.142C168.508 47.3958 168.902 47.5227 169.375 47.5227ZM180.854 45.3295V40.2727H182.911V49H180.916V47.4489H180.825C180.628 47.9375 180.304 48.3371 179.854 48.6477C179.407 48.9583 178.856 49.1136 178.2 49.1136C177.628 49.1136 177.123 48.9867 176.683 48.733C176.248 48.4754 175.907 48.1023 175.661 47.6136C175.414 47.1212 175.291 46.5265 175.291 45.8295V40.2727H177.348V45.5114C177.348 46.0644 177.5 46.5038 177.803 46.8295C178.106 47.1553 178.503 47.3182 178.996 47.3182C179.299 47.3182 179.592 47.2443 179.876 47.0966C180.161 46.9489 180.393 46.7292 180.575 46.4375C180.761 46.142 180.854 45.7727 180.854 45.3295ZM189.384 40.2727V41.8636H184.366V40.2727H189.384ZM185.605 38.1818H187.662V46.375C187.662 46.6515 187.704 46.8636 187.787 47.0114C187.874 47.1553 187.988 47.2538 188.128 47.3068C188.268 47.3598 188.423 47.3864 188.594 47.3864C188.723 47.3864 188.84 47.3769 188.946 47.358C189.056 47.339 189.139 47.322 189.196 47.3068L189.543 48.9148C189.433 48.9527 189.276 48.9943 189.071 49.0398C188.87 49.0852 188.624 49.1117 188.332 49.1193C187.817 49.1345 187.353 49.0568 186.94 48.8864C186.527 48.7121 186.2 48.4432 185.957 48.0795C185.719 47.7159 185.601 47.2614 185.605 46.7159V38.1818ZM195.163 37.3636H197.743L201.197 45.7955H201.334L204.788 37.3636H207.368V49H205.345V41.0057H205.237L202.021 48.9659H200.51L197.294 40.9886H197.186V49H195.163V37.3636ZM213.379 49.1705C212.527 49.1705 211.788 48.983 211.163 48.608C210.538 48.233 210.054 47.7083 209.709 47.0341C209.368 46.3598 209.197 45.572 209.197 44.6705C209.197 43.7689 209.368 42.9792 209.709 42.3011C210.054 41.6231 210.538 41.0966 211.163 40.7216C211.788 40.3466 212.527 40.1591 213.379 40.1591C214.232 40.1591 214.97 40.3466 215.595 40.7216C216.22 41.0966 216.703 41.6231 217.044 42.3011C217.389 42.9792 217.561 43.7689 217.561 44.6705C217.561 45.572 217.389 46.3598 217.044 47.0341C216.703 47.7083 216.22 48.233 215.595 48.608C214.97 48.983 214.232 49.1705 213.379 49.1705ZM213.391 47.5227C213.853 47.5227 214.239 47.3958 214.55 47.142C214.86 46.8845 215.091 46.5398 215.243 46.108C215.398 45.6761 215.476 45.1951 215.476 44.6648C215.476 44.1307 215.398 43.6477 215.243 43.2159C215.091 42.7803 214.86 42.4337 214.55 42.1761C214.239 41.9186 213.853 41.7898 213.391 41.7898C212.917 41.7898 212.523 41.9186 212.209 42.1761C211.898 42.4337 211.665 42.7803 211.51 43.2159C211.358 43.6477 211.283 44.1307 211.283 44.6648C211.283 45.1951 211.358 45.6761 211.51 46.108C211.665 46.5398 211.898 46.8845 212.209 47.142C212.523 47.3958 212.917 47.5227 213.391 47.5227ZM226.205 42.5795L224.33 42.7841C224.277 42.5947 224.184 42.4167 224.051 42.25C223.922 42.0833 223.748 41.9489 223.528 41.8466C223.309 41.7443 223.04 41.6932 222.722 41.6932C222.294 41.6932 221.934 41.786 221.642 41.9716C221.354 42.1572 221.212 42.3977 221.216 42.6932C221.212 42.947 221.305 43.1534 221.494 43.3125C221.688 43.4716 222.006 43.6023 222.449 43.7045L223.938 44.0227C224.763 44.2008 225.377 44.483 225.778 44.8693C226.184 45.2557 226.388 45.7614 226.392 46.3864C226.388 46.9356 226.227 47.4205 225.909 47.8409C225.595 48.2576 225.157 48.5833 224.597 48.8182C224.036 49.053 223.392 49.1705 222.665 49.1705C221.597 49.1705 220.737 48.947 220.085 48.5C219.434 48.0492 219.045 47.4223 218.92 46.6193L220.926 46.4261C221.017 46.8201 221.21 47.1174 221.506 47.3182C221.801 47.5189 222.186 47.6193 222.659 47.6193C223.148 47.6193 223.54 47.5189 223.835 47.3182C224.134 47.1174 224.284 46.8693 224.284 46.5739C224.284 46.3239 224.188 46.1174 223.994 45.9545C223.805 45.7917 223.509 45.6667 223.108 45.5795L221.619 45.267C220.782 45.0928 220.163 44.7992 219.761 44.3864C219.36 43.9697 219.161 43.4432 219.165 42.8068C219.161 42.2689 219.307 41.803 219.602 41.4091C219.902 41.0114 220.316 40.7045 220.847 40.4886C221.381 40.2689 221.996 40.1591 222.693 40.1591C223.716 40.1591 224.521 40.3769 225.108 40.8125C225.699 41.2481 226.064 41.8371 226.205 42.5795ZM232.446 40.2727V41.8636H227.429V40.2727H232.446ZM228.668 38.1818H230.724V46.375C230.724 46.6515 230.766 46.8636 230.849 47.0114C230.937 47.1553 231.05 47.2538 231.19 47.3068C231.33 47.3598 231.486 47.3864 231.656 47.3864C231.785 47.3864 231.902 47.3769 232.009 47.358C232.118 47.339 232.202 47.322 232.259 47.3068L232.605 48.9148C232.495 48.9527 232.338 48.9943 232.134 49.0398C231.933 49.0852 231.687 49.1117 231.395 49.1193C230.88 49.1345 230.416 49.0568 230.003 48.8864C229.59 48.7121 229.262 48.4432 229.02 48.0795C228.781 47.7159 228.664 47.2614 228.668 46.7159V38.1818ZM245.93 40.2727L242.822 49H240.55L237.442 40.2727H239.635L241.641 46.7557H241.732L243.743 40.2727H245.93ZM247.354 49V40.2727H249.411V49H247.354ZM248.388 39.0341C248.062 39.0341 247.782 38.9261 247.547 38.7102C247.312 38.4905 247.195 38.2273 247.195 37.9205C247.195 37.6098 247.312 37.3466 247.547 37.1307C247.782 36.911 248.062 36.8011 248.388 36.8011C248.717 36.8011 248.998 36.911 249.229 37.1307C249.464 37.3466 249.581 37.6098 249.581 37.9205C249.581 38.2273 249.464 38.4905 249.229 38.7102C248.998 38.9261 248.717 39.0341 248.388 39.0341ZM255.389 49.1705C254.514 49.1705 253.759 48.9886 253.122 48.625C252.49 48.2576 252.003 47.7386 251.662 47.0682C251.321 46.3939 251.151 45.6004 251.151 44.6875C251.151 43.7898 251.321 43.0019 251.662 42.3239C252.007 41.642 252.488 41.1117 253.105 40.733C253.723 40.3504 254.448 40.1591 255.281 40.1591C255.819 40.1591 256.327 40.2462 256.804 40.4205C257.285 40.5909 257.709 40.8561 258.077 41.2159C258.448 41.5758 258.74 42.0341 258.952 42.5909C259.164 43.1439 259.27 43.803 259.27 44.5682V45.1989H252.116V43.8125H257.298C257.295 43.4186 257.209 43.0682 257.043 42.7614C256.876 42.4508 256.643 42.2064 256.344 42.0284C256.048 41.8504 255.704 41.7614 255.31 41.7614C254.889 41.7614 254.52 41.8636 254.202 42.0682C253.884 42.2689 253.635 42.5341 253.457 42.8636C253.283 43.1894 253.194 43.5473 253.19 43.9375V45.1477C253.19 45.6553 253.283 46.0909 253.469 46.4545C253.654 46.8144 253.914 47.0909 254.247 47.2841C254.58 47.4735 254.971 47.5682 255.418 47.5682C255.717 47.5682 255.988 47.5265 256.23 47.4432C256.473 47.3561 256.683 47.2292 256.861 47.0625C257.039 46.8958 257.173 46.6894 257.264 46.4432L259.185 46.6591C259.063 47.1667 258.832 47.6098 258.491 47.9886C258.154 48.3636 257.723 48.6553 257.196 48.8636C256.67 49.0682 256.067 49.1705 255.389 49.1705ZM262.764 49L260.298 40.2727H262.395L263.929 46.4091H264.009L265.577 40.2727H267.651L269.219 46.375H269.304L270.815 40.2727H272.918L270.446 49H268.304L266.668 43.1023H266.548L264.912 49H262.764ZM277.967 49.1705C277.092 49.1705 276.337 48.9886 275.7 48.625C275.068 48.2576 274.581 47.7386 274.24 47.0682C273.899 46.3939 273.729 45.6004 273.729 44.6875C273.729 43.7898 273.899 43.0019 274.24 42.3239C274.585 41.642 275.066 41.1117 275.683 40.733C276.301 40.3504 277.026 40.1591 277.859 40.1591C278.397 40.1591 278.905 40.2462 279.382 40.4205C279.863 40.5909 280.287 40.8561 280.655 41.2159C281.026 41.5758 281.318 42.0341 281.53 42.5909C281.742 43.1439 281.848 43.803 281.848 44.5682V45.1989H274.695V43.8125H279.876C279.873 43.4186 279.787 43.0682 279.621 42.7614C279.454 42.4508 279.221 42.2064 278.922 42.0284C278.626 41.8504 278.282 41.7614 277.888 41.7614C277.467 41.7614 277.098 41.8636 276.78 42.0682C276.462 42.2689 276.214 42.5341 276.036 42.8636C275.861 43.1894 275.772 43.5473 275.768 43.9375V45.1477C275.768 45.6553 275.861 46.0909 276.047 46.4545C276.232 46.8144 276.492 47.0909 276.825 47.2841C277.159 47.4735 277.549 47.5682 277.996 47.5682C278.295 47.5682 278.566 47.5265 278.808 47.4432C279.051 47.3561 279.261 47.2292 279.439 47.0625C279.617 46.8958 279.751 46.6894 279.842 46.4432L281.763 46.6591C281.642 47.1667 281.411 47.6098 281.07 47.9886C280.732 48.3636 280.301 48.6553 279.774 48.8636C279.248 49.0682 278.645 49.1705 277.967 49.1705ZM286.827 49.1534C286.141 49.1534 285.527 48.9773 284.986 48.625C284.444 48.2727 284.016 47.7614 283.702 47.0909C283.387 46.4205 283.23 45.6061 283.23 44.6477C283.23 43.678 283.389 42.8598 283.707 42.1932C284.029 41.5227 284.463 41.017 285.009 40.6761C285.554 40.3314 286.162 40.1591 286.832 40.1591C287.344 40.1591 287.764 40.2462 288.094 40.4205C288.423 40.5909 288.685 40.7973 288.878 41.0398C289.071 41.2784 289.221 41.5038 289.327 41.7159H289.412V37.3636H291.474V49H289.452V47.625H289.327C289.221 47.8371 289.067 48.0625 288.866 48.3011C288.666 48.536 288.401 48.7367 288.071 48.9034C287.741 49.0701 287.327 49.1534 286.827 49.1534ZM287.401 47.4659C287.836 47.4659 288.207 47.3485 288.514 47.1136C288.821 46.875 289.054 46.5436 289.213 46.1193C289.372 45.6951 289.452 45.2008 289.452 44.6364C289.452 44.072 289.372 43.5814 289.213 43.1648C289.058 42.7481 288.827 42.4242 288.52 42.1932C288.217 41.9621 287.844 41.8466 287.401 41.8466C286.942 41.8466 286.56 41.9659 286.253 42.2045C285.946 42.4432 285.715 42.7727 285.56 43.1932C285.404 43.6136 285.327 44.0947 285.327 44.6364C285.327 45.1818 285.404 45.6686 285.56 46.0966C285.719 46.5208 285.952 46.8561 286.259 47.1023C286.569 47.3447 286.95 47.4659 287.401 47.4659ZM297.726 49V37.3636H299.783V41.7159H299.868C299.974 41.5038 300.124 41.2784 300.317 41.0398C300.51 40.7973 300.771 40.5909 301.101 40.4205C301.43 40.2462 301.851 40.1591 302.362 40.1591C303.036 40.1591 303.644 40.3314 304.186 40.6761C304.732 41.017 305.163 41.5227 305.482 42.1932C305.804 42.8598 305.964 43.678 305.964 44.6477C305.964 45.6061 305.807 46.4205 305.493 47.0909C305.179 47.7614 304.75 48.2727 304.209 48.625C303.667 48.9773 303.054 49.1534 302.368 49.1534C301.868 49.1534 301.453 49.0701 301.124 48.9034C300.794 48.7367 300.529 48.536 300.328 48.3011C300.131 48.0625 299.978 47.8371 299.868 47.625H299.749V49H297.726ZM299.743 44.6364C299.743 45.2008 299.822 45.6951 299.982 46.1193C300.144 46.5436 300.377 46.875 300.68 47.1136C300.987 47.3485 301.358 47.4659 301.794 47.4659C302.249 47.4659 302.629 47.3447 302.936 47.1023C303.243 46.8561 303.474 46.5208 303.629 46.0966C303.788 45.6686 303.868 45.1818 303.868 44.6364C303.868 44.0947 303.79 43.6136 303.635 43.1932C303.48 42.7727 303.249 42.4432 302.942 42.2045C302.635 41.9659 302.252 41.8466 301.794 41.8466C301.355 41.8466 300.982 41.9621 300.675 42.1932C300.368 42.4242 300.135 42.7481 299.976 43.1648C299.821 43.5814 299.743 44.072 299.743 44.6364ZM309.77 37.3636V49H307.713V37.3636H309.77ZM315.692 49.1705C314.839 49.1705 314.101 48.983 313.476 48.608C312.851 48.233 312.366 47.7083 312.021 47.0341C311.68 46.3598 311.51 45.572 311.51 44.6705C311.51 43.7689 311.68 42.9792 312.021 42.3011C312.366 41.6231 312.851 41.0966 313.476 40.7216C314.101 40.3466 314.839 40.1591 315.692 40.1591C316.544 40.1591 317.283 40.3466 317.908 40.7216C318.533 41.0966 319.016 41.6231 319.357 42.3011C319.701 42.9792 319.874 43.7689 319.874 44.6705C319.874 45.572 319.701 46.3598 319.357 47.0341C319.016 47.7083 318.533 48.233 317.908 48.608C317.283 48.983 316.544 49.1705 315.692 49.1705ZM315.703 47.5227C316.165 47.5227 316.552 47.3958 316.862 47.142C317.173 46.8845 317.404 46.5398 317.555 46.108C317.711 45.6761 317.788 45.1951 317.788 44.6648C317.788 44.1307 317.711 43.6477 317.555 43.2159C317.404 42.7803 317.173 42.4337 316.862 42.1761C316.552 41.9186 316.165 41.7898 315.703 41.7898C315.23 41.7898 314.836 41.9186 314.521 42.1761C314.211 42.4337 313.978 42.7803 313.822 43.2159C313.671 43.6477 313.595 44.1307 313.595 44.6648C313.595 45.1951 313.671 45.6761 313.822 46.108C313.978 46.5398 314.211 46.8845 314.521 47.142C314.836 47.3958 315.23 47.5227 315.703 47.5227ZM325.415 52.4545C324.676 52.4545 324.042 52.3542 323.511 52.1534C322.981 51.9564 322.555 51.6913 322.233 51.358C321.911 51.0246 321.688 50.6553 321.562 50.25L323.415 49.8011C323.498 49.9716 323.619 50.1402 323.778 50.3068C323.938 50.4773 324.152 50.6174 324.42 50.7273C324.693 50.8409 325.036 50.8977 325.449 50.8977C326.032 50.8977 326.515 50.7557 326.898 50.4716C327.28 50.1913 327.472 49.7292 327.472 49.0852V47.4318H327.369C327.263 47.6439 327.108 47.8617 326.903 48.0852C326.703 48.3087 326.436 48.4962 326.102 48.6477C325.773 48.7992 325.358 48.875 324.858 48.875C324.188 48.875 323.58 48.7178 323.034 48.4034C322.492 48.0852 322.061 47.6117 321.739 46.983C321.42 46.3504 321.261 45.5587 321.261 44.608C321.261 43.6496 321.42 42.8409 321.739 42.1818C322.061 41.5189 322.494 41.017 323.04 40.6761C323.585 40.3314 324.193 40.1591 324.864 40.1591C325.375 40.1591 325.795 40.2462 326.125 40.4205C326.458 40.5909 326.723 40.7973 326.92 41.0398C327.117 41.2784 327.267 41.5038 327.369 41.7159H327.483V40.2727H329.511V49.142C329.511 49.8883 329.333 50.5057 328.977 50.9943C328.621 51.483 328.134 51.8485 327.517 52.0909C326.9 52.3333 326.199 52.4545 325.415 52.4545ZM325.432 47.2614C325.867 47.2614 326.239 47.1553 326.545 46.9432C326.852 46.7311 327.085 46.4261 327.244 46.0284C327.403 45.6307 327.483 45.1534 327.483 44.5966C327.483 44.0473 327.403 43.5663 327.244 43.1534C327.089 42.7405 326.858 42.4205 326.551 42.1932C326.248 41.9621 325.875 41.8466 325.432 41.8466C324.973 41.8466 324.591 41.9659 324.284 42.2045C323.977 42.4432 323.746 42.7708 323.591 43.1875C323.436 43.6004 323.358 44.0701 323.358 44.5966C323.358 45.1307 323.436 45.5985 323.591 46C323.75 46.3977 323.983 46.7083 324.29 46.9318C324.6 47.1515 324.981 47.2614 325.432 47.2614ZM338.517 42.5795L336.642 42.7841C336.589 42.5947 336.496 42.4167 336.364 42.25C336.235 42.0833 336.061 41.9489 335.841 41.8466C335.621 41.7443 335.352 41.6932 335.034 41.6932C334.606 41.6932 334.246 41.786 333.955 41.9716C333.667 42.1572 333.525 42.3977 333.528 42.6932C333.525 42.947 333.617 43.1534 333.807 43.3125C334 43.4716 334.318 43.6023 334.761 43.7045L336.25 44.0227C337.076 44.2008 337.689 44.483 338.091 44.8693C338.496 45.2557 338.701 45.7614 338.705 46.3864C338.701 46.9356 338.54 47.4205 338.222 47.8409C337.907 48.2576 337.47 48.5833 336.909 48.8182C336.348 49.053 335.705 49.1705 334.977 49.1705C333.909 49.1705 333.049 48.947 332.398 48.5C331.746 48.0492 331.358 47.4223 331.233 46.6193L333.239 46.4261C333.33 46.8201 333.523 47.1174 333.818 47.3182C334.114 47.5189 334.498 47.6193 334.972 47.6193C335.46 47.6193 335.852 47.5189 336.148 47.3182C336.447 47.1174 336.597 46.8693 336.597 46.5739C336.597 46.3239 336.5 46.1174 336.307 45.9545C336.117 45.7917 335.822 45.6667 335.42 45.5795L333.932 45.267C333.095 45.0928 332.475 44.7992 332.074 44.3864C331.672 43.9697 331.473 43.4432 331.477 42.8068C331.473 42.2689 331.619 41.803 331.915 41.4091C332.214 41.0114 332.629 40.7045 333.159 40.4886C333.693 40.2689 334.309 40.1591 335.006 40.1591C336.028 40.1591 336.833 40.3769 337.42 40.8125C338.011 41.2481 338.377 41.8371 338.517 42.5795Z" fill="black"/>
<path d="M394.707 46.7071C395.098 46.3166 395.098 45.6834 394.707 45.2929L388.343 38.9289C387.953 38.5384 387.319 38.5384 386.929 38.9289C386.538 39.3195 386.538 39.9526 386.929 40.3431L392.586 46L386.929 51.6569C386.538 52.0474 386.538 52.6805 386.929 53.0711C387.319 53.4616 387.953 53.4616 388.343 53.0711L394.707 46.7071ZM352 47H394V45H352V47Z" fill="black"/>
<defs>
<filter id="filter0_d_204_8" x="0" y="0" width="433" height="92" filterUnits="userSpaceOnUse" color-interpolation-filters="sRGB">
<feFlood flood-opacity="0" result="BackgroundImageFix"/>
<feColorMatrix in="SourceAlpha" type="matrix" values="0 0 0 0 0 0 0 0 0 0 0 0 0 0 0 0 0 0 127 0" result="hardAlpha"/>
<feOffset dx="3" dy="4"/>
<feGaussianBlur stdDeviation="5.5"/>
<feComposite in2="hardAlpha" operator="out"/>
<feColorMatrix type="matrix" values="0 0 0 0 0 0 0 0 0 0 0 0 0 0 0 0 0 0 0.25 0"/>
<feBlend mode="normal" in2="BackgroundImageFix" result="effect1_dropShadow_204_8"/>
<feBlend mode="normal" in="SourceGraphic" in2="effect1_dropShadow_204_8" result="shape"/>
</filter>
</defs>
</svg>
